<svg width="12" height="12" viewBox="0 0 12 12" fill="none" xmlns="http://www.w3.org/2000/svg">
<path fill-rule="evenodd" clip-rule="evenodd" d="M0.617679 4.58455C0.617534 4.64633 0.628271 4.7082 0.649993 4.76674L0.652375 4.77303C0.723281 4.95638 0.895162 5.08574 1.09594 5.08574H3.9655C4.22964 5.08574 4.44376 4.86186 4.44376 4.58569C4.44376 4.30952 4.22964 4.08564 3.9655 4.08564H2.30333L3.64257 2.76989C4.58204 1.78747 5.9225 1.38208 7.20382 1.6852C8.48514 1.98833 9.52813 2.95758 9.96638 4.25245C10.0545 4.5128 10.3278 4.64917 10.5768 4.55704C10.8258 4.46491 10.9562 4.17917 10.8681 3.91882C10.3203 2.30023 9.01656 1.08867 7.41491 0.709762C5.81326 0.330858 4.13768 0.837601 2.9768 2.05197L1.5742 3.42977V1.58539C1.5742 1.30922 1.36008 1.08534 1.09594 1.08534C0.831803 1.08534 0.617679 1.30922 0.617679 1.58539V4.58455ZM11.618 7.58823C11.6182 7.52645 11.6075 7.46458 11.5857 7.40604L11.5833 7.39975C11.5124 7.2164 11.3406 7.08704 11.1398 7.08704H8.27022C8.00608 7.08704 7.79196 7.31092 7.79196 7.58709C7.79196 7.86326 8.00608 8.08714 8.27022 8.08714H9.93239L8.59315 9.40289C7.65368 10.3853 6.31322 10.7907 5.0319 10.4876C3.75058 10.1845 2.70759 9.21521 2.26934 7.92033C2.18123 7.65998 1.90794 7.52361 1.65893 7.61574C1.40993 7.70787 1.2795 7.99361 1.36762 8.25396C1.91543 9.87255 3.21916 11.0841 4.82081 11.463C6.42246 11.8419 8.09804 11.3352 9.25892 10.1208L10.6615 8.74301V10.5874C10.6615 10.8636 10.8756 11.0874 11.1398 11.0874C11.4039 11.0874 11.618 10.8636 11.618 10.5874V7.58823Z" fill="black"/>
</svg>
